Huey Lewis And The News
Grugahalle, Essen Rockpalast (1984)

Track:
 1 The Heart Of Rock & Roll
 2 Change Of Heart
 3 Dont Make Me Do It To You
 4 I Want You
 5 If This Is It
 6 Heart And Soul
 7 Walkin On A Thin Line
 8 ts Alright
 9 Do You Believe In Love
 10 Finally Found A Home
 11 Workin For A Livin
 12 Buzz Buzz Buzz
 13 I Want A New Drug
 14 Bad Is Bad

Time 1h 20m

Mediainfo:
General
Unique ID                        : 194261160136036559176031537567805609876 (0x922556AA25AC85A093AE19544E421794)
Complete name                    : E:\Down\Huey Lewis And The News - Grugahalle, Essen Rockpalast (1984).mkv
Format                           : Matroska
File size                        : 1.51 GiB
Duration                         : 1h 20mn
Overall bit rate                 : 2 680 Kbps
Movie name                       : Huey Lewis And The News - Grugahalle, Essen Rockpalast (1984)
Encoded date                     : UTC 2011-09-14 17:12:52
Writing application              : mkvmerge v3.3.0 ('Language') built on Mar 24 2010 14:59:24
Writing library                  : libebml v0.8.0 + libmatroska v0.9.0
Cover                            : Yes

Video
ID                               : 1
Format                           : AVC
Format/Info                      : Advanced Video Codec
Format profile                   : High@L3.0
Format settings, CABAC           : Yes
Format settings, ReFrames        : 4 frames
Codec ID                         : V_MPEG4/ISO/AVC
Duration                         : 1h 20mn
Bit rate                         : 1 201 Kbps
Width                            : 688 pixels
Height                           : 576 pixels
Display aspect ratio             : 1.274
Frame rate                       : 25.000 fps
Color space                      : YUV
Chroma subsampling               : 4:2:0
Bit depth                        : 8 bits
Scan type                        : Progressive
Bits/(Pixel*Frame)               : 0.121
Stream size                      : 690 MiB (45%)
Title                            : Huey Lewis And The News
Writing library                  : x264 core 92 r1510 33d382a
Encoding settings                : cabac=1 / ref=2 / deblock=1:0:0 / analyse=0x3:0x113 / me=hex / subme=6 / psy=1 / psy_rd=1.00:0.00 / mixed_ref=1 / me_range=16 / chroma_me=1 / trellis=1 / 8x8dct=1 / cqm=0 / deadzone=21,11 / fast_pskip=1 / chroma_qp_offset=-2 / threads=4 / sliced_threads=0 / nr=0 / decimate=1 / interlaced=0 / constrained_intra=0 / bframes=3 / b_pyramid=2 / b_adapt=1 / b_bias=0 / direct=1 / wpredb=1 / wpredp=2 / keyint=250 / keyint_min=25 / scenecut=40 / intra_refresh=0 / rc_lookahead=30 / rc=crf / mbtree=1 / crf=23.0 / qcomp=0.60 / qpmin=10 / qpmax=51 / qpstep=4 / ip_ratio=1.40 / aq=1:1.00
Language                         : English

Audio #1
ID                               : 2
Format                           : AC-3
Format/Info                      : Audio Coding 3
Mode extension                   : CM (complete main)
Codec ID                         : A_AC3
Duration                         : 1h 20mn
Bit rate mode                    : Constant
Bit rate                         : 224 Kbps
Channel(s)                       : 2 channels
Channel positions                : Front: L R
Sampling rate                    : 48.0 KHz
Bit depth                        : 16 bits
Compression mode                 : Lossy
Stream size                      : 129 MiB (8%)
Title                            : AC-3; 2/0
Language                         : English

Audio #2
ID                               : 3
Format                           : AC-3
Format/Info                      : Audio Coding 3
Mode extension                   : CM (complete main)
Codec ID                         : A_AC3
Duration                         : 1h 20mn
Bit rate mode                    : Constant
Bit rate                         : 448 Kbps
Channel(s)                       : 6 channels
Channel positions                : Front: L C R, Side: L R, LFE
Sampling rate                    : 48.0 KHz
Bit depth                        : 16 bits
Compression mode                 : Lossy
Stream size                      : 258 MiB (17%)
Title                            : AC-3; 3/2+1
Language                         : English

Audio #3
ID                               : 4
Format                           : DTS
Format/Info                      : Digital Theater Systems
Codec ID                         : A_DTS
Duration                         : 1h 20mn
Bit rate mode                    : Constant
Bit rate                         : 755 Kbps
Channel(s)                       : 6 channels
Channel positions                : Front: L C R, Side: L R, LFE
Sampling rate                    : 48.0 KHz
Bit depth                        : 24 bits
Compression mode                 : Lossy
Delay relative to video          : 11ms
Stream size                      : 434 MiB (28%)
Title                            : DTS; 3/2+1
Language                         : English

Menu
00:00:00.000                     : en:Chapter 01
00:05:34.000                     : en:Chapter 02
00:09:13.640                     : en:Chapter 03
00:12:24.600                     : en:Chapter 04
00:16:09.440                     : en:Chapter 05
00:20:17.360                     : en:Chapter 06
00:24:50.840                     : en:Chapter 07
00:31:38.360                     : en:Chapter 08
00:34:56.120                     : en:Chapter 09
00:39:28.320                     : en:Chapter 10
00:43:21.600                     : en:Chapter 11
00:52:19.000                     : en:Chapter 12
00:56:19.480                     : en:Chapter 13
01:04:56.000                     : en:Chapter 14

